<?xml version="1.0" ?><svg id="Layer_1" style="enable-background:new 0 0 128 128;" version="1.1" viewBox="0 0 128 128" xml:space="preserve" xmlns="http://www.w3.org/2000/svg" xmlns:xlink="http://www.w3.org/1999/xlink"><style type="text/css">
	.st0{fill:#0D6291;}
	.st1{fill:#A63346;}
	.st2{fill:#FCFEF9;}
	.st3{enable-background:new    ;}
	.st4{fill:#FFFFFF;}
	.st5{fill:#D5D5E5;}
</style><title/><g><polygon class="st0" points="33,57 39,128 89,128 95,57  "/></g><g><polygon class="st1" points="33,57 39,28 89,28 95,57  "/></g><g><polygon class="st2" points="64,115.2 65.1,118.7 68.8,118.6 65.7,120.7 66.9,124.2 64,122 61.1,124.2 62.3,120.7 59.2,118.6    62.9,118.7  "/></g><g><polygon class="st2" points="49,115.2 50.1,118.7 53.8,118.6 50.7,120.7 51.9,124.2 49,122 46.1,124.2 47.3,120.7 44.2,118.6    47.9,118.7  "/></g><g><polygon class="st2" points="79,115.2 80.1,118.7 83.8,118.6 80.7,120.7 81.9,124.2 79,122 76.1,124.2 77.3,120.7 74.2,118.6    77.9,118.7  "/></g><g class="st3"><path class="st4" d="M48.4,89l-3.6-10.1h1.4l2.9,8.8h0l2.9-8.8h1.4L49.9,89H48.4z"/><path class="st4" d="M55.3,81.9c0.2-0.6,0.5-1.2,0.9-1.7c0.4-0.5,0.9-0.9,1.5-1.2c0.6-0.3,1.3-0.4,2.1-0.4s1.5,0.1,2.1,0.4   c0.6,0.3,1.1,0.7,1.5,1.2c0.4,0.5,0.7,1.1,0.9,1.7s0.3,1.3,0.3,2s-0.1,1.4-0.3,2c-0.2,0.6-0.5,1.2-0.9,1.7   c-0.4,0.5-0.9,0.9-1.5,1.2s-1.3,0.4-2.1,0.4s-1.5-0.1-2.1-0.4s-1.1-0.7-1.5-1.2c-0.4-0.5-0.7-1.1-0.9-1.7c-0.2-0.6-0.3-1.3-0.3-2   S55.1,82.6,55.3,81.9z M56.5,85.4c0.1,0.5,0.3,0.9,0.6,1.3c0.3,0.4,0.6,0.7,1.1,1c0.4,0.2,1,0.4,1.6,0.4s1.1-0.1,1.6-0.4   c0.4-0.2,0.8-0.6,1.1-1c0.3-0.4,0.5-0.8,0.6-1.3s0.2-1,0.2-1.5s-0.1-1-0.2-1.5s-0.3-0.9-0.6-1.3c-0.3-0.4-0.6-0.7-1.1-1   c-0.4-0.2-1-0.4-1.6-0.4s-1.1,0.1-1.6,0.4c-0.4,0.2-0.8,0.6-1.1,1c-0.3,0.4-0.5,0.8-0.6,1.3s-0.2,1-0.2,1.5S56.4,85,56.5,85.4z"/><path class="st4" d="M66.2,80v-1.1h8.1V80h-3.4v9h-1.3v-9H66.2z"/><path class="st4" d="M83.3,78.9V80h-5.6v3.2h5.3v1.1h-5.3v3.5h5.7V89h-7V78.9H83.3z"/></g><g><rect class="st2" height="5" width="38" x="45" y="40"/></g><g><g><rect class="st5" height="45" width="36" x="46"/></g><g><polygon class="st0" points="65.5,31.1 56.8,45 46,45 46,0   "/></g><g><g><polygon class="st2" points="48,31.1 49.7,30.6 49.7,28.8 50.7,30.3 52.4,29.7 51.3,31.1 52.4,32.6 50.7,32 49.7,33.4 49.7,31.7         "/></g><g><polygon class="st2" points="48,38.4 49.7,37.9 49.7,36.1 50.7,37.6 52.4,37 51.3,38.4 52.4,39.9 50.7,39.3 49.7,40.7 49.7,39         "/></g><g><polygon class="st2" points="48,23.8 49.7,23.3 49.7,21.5 50.7,23 52.4,22.4 51.3,23.8 52.4,25.3 50.7,24.7 49.7,26.1 49.7,24.4         "/></g></g></g></svg>