<?xml version="1.0" encoding="UTF-8" standalone="no"?>
<svg
   xmlns:dc="http://purl.org/dc/elements/1.1/"
   xmlns:cc="http://creativecommons.org/ns#"
   xmlns:rdf="http://www.w3.org/1999/02/22-rdf-syntax-ns#"
   xmlns:svg="http://www.w3.org/2000/svg"
   xmlns="http://www.w3.org/2000/svg"
   xmlns:xlink="http://www.w3.org/1999/xlink"
   xmlns:sodipodi="http://sodipodi.sourceforge.net/DTD/sodipodi-0.dtd"
   xmlns:inkscape="http://www.inkscape.org/namespaces/inkscape"
   version="1.1"
   width="784.51202"
   height="126.864"
   id="svg3899"
   sodipodi:docname="osgisomg.svg"
   inkscape:version="0.92.2 5c3e80d, 2017-08-06">
  <metadata
     id="metadata3903">
    <rdf:RDF>
      <cc:Work
         rdf:about="">
        <dc:format>image/svg+xml</dc:format>
        <dc:type
           rdf:resource="http://purl.org/dc/dcmitype/StillImage" />
      </cc:Work>
    </rdf:RDF>
  </metadata>
  <sodipodi:namedview
     pagecolor="#ffffff"
     bordercolor="#666666"
     borderopacity="1"
     objecttolerance="10"
     gridtolerance="10"
     guidetolerance="10"
     inkscape:pageopacity="0"
     inkscape:pageshadow="2"
     inkscape:window-width="1920"
     inkscape:window-height="1009"
     id="namedview3901"
     showgrid="false"
     inkscape:zoom="1.0076561"
     inkscape:cx="505.42916"
     inkscape:cy="65.376"
     inkscape:window-x="0"
     inkscape:window-y="34"
     inkscape:window-maximized="1"
     inkscape:current-layer="svg3899"
     fit-margin-top="0"
     fit-margin-left="0"
     fit-margin-right="0"
     fit-margin-bottom="0" />
  <defs
     id="defs3847">
    <path
       id="shade-notdef"
       d="m 735,-159 c 14,0 25,4 31,10 l 130,108 c 9,8 14,19 14,37 v 728 c 0,32 -14,46 -46,46 H 136 c -14,0 -25,-3 -32,-9 L -25,652 c -9,-8 -14,-19 -14,-37 v -728 c 0,-32 14,-46 46,-46 z M 711,591 V 20 H 160 v 571 z"
       inkscape:connector-curvature="0" />
    <path
       id="shade-47"
       d="m 490,-119 c 14,0 25,4 31,10 L 651,-1 c 9,8 14,19 14,37 v 309 c 0,32 -14,46 -46,46 H 464 c -14,0 -25,-3 -32,-9 L 303,273 c -3,-3 -6,-6 -8,-9 v 144 h 130 c 14,0 25,4 31,10 l 130,108 c 9,8 14,19 14,37 v 121 c 0,32 -14,46 -46,46 H 304 C 217,730 153,713 111,678 L -18,569 C -60,533 -81,481 -81,407 V 125 c 0,-145 80,-244 256,-244 z"
       inkscape:connector-curvature="0" />
    <path
       id="shade-e114"
       d="m 136,-119 c 14,0 25,4 31,10 L 297,-1 c 9,8 14,19 14,37 v 648 c 0,32 -14,46 -46,46 H 106 c -14,0 -25,-3 -32,-9 L -55,612 c -9,-8 -14,-19 -14,-37 V -73 c 0,-32 14,-46 46,-46 z m 49,866 z M 185,0 Z"
       inkscape:connector-curvature="0" />
    <path
       id="shade-4d"
       d="m 286,-1 c 9,8 14,19 14,37 v 92 h 13 c 19,0 32,5 43,14 l 59,49 V -73 c 0,-32 13,-46 46,-46 h 154 c 14,0 25,4 31,10 L 776,-1 c 9,8 14,19 14,37 v 648 c 0,32 -14,46 -46,46 H 582 c -16,0 -26,-4 -37,-12 L 416,610 c -7,-6 -13,-14 -18,-24 l -9,-16 -68,125 c -15,26 -30,35 -55,35 H 105 c -14,0 -25,-3 -32,-9 L -56,612 c -9,-8 -14,-19 -14,-37 V -73 c 0,-32 14,-46 46,-46 h 149 c 14,0 25,4 31,10 z"
       inkscape:connector-curvature="0" />
    <path
       id="shade-4f"
       d="M 500,-71 629,37 c 45,38 60,90 60,152 V 530 C 689,656 631,745 369,745 235,745 156,722 109,682 L -21,574 C -66,536 -81,483 -81,421 V 110 c 0,-126 59,-244 321,-244 133,0 213,23 260,63 z M 295,225 v 189 c 15,-6 19,-16 19,-29 V 195 c -15,7 -19,17 -19,30 z"
       inkscape:connector-curvature="0" />
    <path
       id="shade-53"
       d="m -42,-119 h 316 c 67,0 121,17 158,48 L 561,37 c 39,32 59,79 59,139 v 105 c 0,108 -55,153 -140,172 l 90,75 c 9,8 14,19 14,37 v 119 c 0,32 -14,46 -46,46 H 258 C 190,730 136,713 100,683 L -30,574 C -68,542 -88,495 -88,435 V 330 C -88,233 -45,187 26,165 L -74,81 C -83,73 -88,62 -88,44 V -73 c 0,-32 14,-46 46,-46 z"
       inkscape:connector-curvature="0" />
    <path
       id="regular-notdef"
       d="m 900,-4 v 728 c 0,25 -11,36 -36,36 H 136 c -25,0 -36,-11 -36,-36 V -4 c 0,-25 11,-36 36,-36 h 728 c 25,0 36,11 36,36 z M 850,10 H 150 v 700 h 700 z"
       inkscape:connector-curvature="0" />
    <path
       id="regular-47"
       d="m 619,0 c 25,0 36,11 36,36 v 309 c 0,25 -11,36 -36,36 H 464 c -25,0 -36,-11 -36,-36 V 189 h -97 c -31,0 -46,15 -46,49 v 239 c 0,34 19,50 61,50 h 208 c 25,0 36,11 36,36 v 121 c 0,25 -11,36 -36,36 H 304 C 136,720 58,655 58,516 V 204 C 58,65 136,0 304,0 Z"
       inkscape:connector-curvature="0" />
    <path
       id="regular-e114"
       d="m 265,0 c 25,0 36,11 36,36 v 648 c 0,25 -11,36 -36,36 H 106 C 81,720 70,709 70,684 V 36 C 70,11 81,0 106,0 Z M 185,747 Z M 185,0 Z"
       inkscape:connector-curvature="0" />
    <path
       id="regular-4d"
       d="m 254,0 c 25,0 36,11 36,36 v 352 l 59,-109 c 12,-23 27,-32 53,-32 h 40 c 26,0 41,9 53,32 l 59,109 V 36 C 554,11 564,0 590,0 h 154 c 25,0 36,11 36,36 v 648 c 0,25 -11,36 -36,36 H 582 c -21,0 -34,-8 -46,-30 L 447,527 c -7,-12 -10,-17 -18,-17 h -9 c -8,0 -11,5 -18,17 l -90,163 c -12,22 -25,30 -46,30 H 105 C 80,720 69,709 69,684 V 36 C 69,11 80,0 105,0 Z"
       inkscape:connector-curvature="0" />
    <path
       id="regular-4f"
       d="M 679,189 V 530 C 679,652 619,735 369,735 119,735 58,652 58,530 V 189 c 0,-122 61,-204 311,-204 250,0 310,82 310,204 z m -394,36 v 269 c 0,26 12,46 84,46 73,0 84,-20 84,-46 V 225 c 0,-27 -11,-47 -84,-47 -72,0 -84,20 -84,47 z"
       inkscape:connector-curvature="0" />
    <path
       id="regular-53"
       d="m 403,0 c 129,0 207,62 207,176 v 105 c 0,112 -62,152 -156,166 l -149,20 c -17,2 -27,14 -27,32 0,18 10,30 27,30 h 233 c 25,0 36,11 36,36 v 119 c 0,25 -11,36 -36,36 H 258 C 128,720 51,658 51,544 V 439 C 51,327 112,287 206,273 l 150,-21 c 17,-2 26,-11 26,-34 0,-16 -9,-29 -26,-29 H 87 C 62,189 51,178 51,153 V 36 C 51,11 62,0 87,0 Z"
       inkscape:connector-curvature="0" />
    <path
       id="inline-notdef"
       d="M 120,-20 H 880 V 740 H 120 Z m 750,10 H 130 v 740 h 740 z"
       inkscape:connector-curvature="0" />
    <path
       id="inline-47"
       d="M 347,90 H 546 V 291 H 536 V 100 H 347 c -135,0 -170,32 -170,119 v 280 c 0,89 32,121 150,121 h 173 v 10 H 327 C 199,630 167,594 167,499 V 219 C 167,126 200,90 347,90 Z"
       inkscape:connector-curvature="0" />
    <path
       id="inline-e114"
       d="M 181,630 V 90 h 10 v 540 z m 4,117 z M 185,0 Z"
       inkscape:connector-curvature="0" />
    <path
       id="inline-4d"
       d="m 421,385 c -24,0 -28,7 -51,42 L 248,613 c -8,13 -19,17 -30,17 h -17 c -18,0 -26,-9 -26,-31 V 90 h 10 v 509 c 0,11 2,21 16,21 h 15 c 9,0 16,-1 24,-14 L 362,422 c 24,-36 30,-47 59,-47 29,0 35,11 59,47 l 122,184 c 8,13 14,14 23,14 h 15 c 14,0 17,-10 17,-21 V 90 h 10 v 509 c 0,22 -8,31 -27,31 h -17 c -11,0 -21,-4 -29,-17 L 472,427 c -23,-35 -27,-42 -51,-42 z"
       inkscape:connector-curvature="0" />
    <path
       id="inline-4f"
       d="M 570,212 V 507 C 570,588 524,642 367,642 210,642 166,588 166,507 V 212 c 0,-81 44,-135 201,-135 157,0 203,54 203,135 z m -394,0 v 295 c 0,75 42,125 191,125 149,0 193,-50 193,-125 V 212 C 560,137 516,87 367,87 218,87 176,137 176,212 Z"
       inkscape:connector-curvature="0" />
    <path
       id="inline-53"
       d="M 484,630 H 262 c -62,0 -102,-38 -102,-91 v -82 c 0,-55 24,-70 59,-77 l 211,-43 c 37,-8 61,-25 61,-88 v -58 c 0,-53 -39,-91 -101,-91 H 141 V 90 h 249 c 68,0 111,42 111,101 v 58 c 0,70 -29,90 -69,98 l -211,43 c -31,6 -51,20 -51,67 v 82 c 0,47 36,81 92,81 h 222 z"
       inkscape:connector-curvature="0" />
  </defs>
  <!-- Text: OSGISOMG (8 bytes) -->
  <!-- O -->
  <use
     transform="matrix(0.144,0,0,-0.144,11.664,107.568)"
     xlink:href="#shade-4f"
     style="fill:#ece4e1;stroke:none"
     id="use3851"
     x="0"
     y="0"
     width="100%"
     height="100%" />
  <!-- S -->
  <use
     transform="matrix(0.144,0,0,-0.144,117.792,107.568)"
     xlink:href="#shade-53"
     style="fill:#ece4e1;stroke:none"
     id="use3853"
     x="0"
     y="0"
     width="100%"
     height="100%" />
  <!-- G -->
  <use
     transform="matrix(0.144,0,0,-0.144,211.392,107.568)"
     xlink:href="#shade-47"
     style="fill:#ece4e1;stroke:none"
     id="use3855"
     x="0"
     y="0"
     width="100%"
     height="100%" />
  <!-- I -->
  <use
     transform="matrix(0.144,0,0,-0.144,313.344,107.568)"
     xlink:href="#shade-e114"
     style="fill:#ece4e1;stroke:none"
     id="use3857"
     x="0"
     y="0"
     width="100%"
     height="100%" />
  <!-- S -->
  <use
     transform="matrix(0.144,0,0,-0.144,366.768,107.568)"
     xlink:href="#shade-53"
     style="fill:#ece4e1;stroke:none"
     id="use3859"
     x="0"
     y="0"
     width="100%"
     height="100%" />
  <!-- O -->
  <use
     transform="matrix(0.144,0,0,-0.144,460.368,107.568)"
     xlink:href="#shade-4f"
     style="fill:#ece4e1;stroke:none"
     id="use3861"
     x="0"
     y="0"
     width="100%"
     height="100%" />
  <!-- M -->
  <use
     transform="matrix(0.144,0,0,-0.144,566.496,107.568)"
     xlink:href="#shade-4d"
     style="fill:#ece4e1;stroke:none"
     id="use3863"
     x="0"
     y="0"
     width="100%"
     height="100%" />
  <!-- G -->
  <use
     transform="matrix(0.144,0,0,-0.144,688.752,107.568)"
     xlink:href="#shade-47"
     style="fill:#ece4e1;stroke:none"
     id="use3865"
     x="0"
     y="0"
     width="100%"
     height="100%" />
  <!-- O -->
  <use
     transform="matrix(0.144,0,0,-0.144,11.664,107.568)"
     xlink:href="#regular-4f"
     style="fill:#d42b26;stroke:none"
     id="use3867"
     x="0"
     y="0"
     width="100%"
     height="100%" />
  <!-- S -->
  <use
     transform="matrix(0.144,0,0,-0.144,117.792,107.568)"
     xlink:href="#regular-53"
     style="fill:#d42b26;stroke:none"
     id="use3869"
     x="0"
     y="0"
     width="100%"
     height="100%" />
  <!-- G -->
  <use
     transform="matrix(0.144,0,0,-0.144,211.392,107.568)"
     xlink:href="#regular-47"
     style="fill:#d42b26;stroke:none"
     id="use3871"
     x="0"
     y="0"
     width="100%"
     height="100%" />
  <!-- I -->
  <use
     transform="matrix(0.144,0,0,-0.144,313.344,107.568)"
     xlink:href="#regular-e114"
     style="fill:#d42b26;stroke:none"
     id="use3873"
     x="0"
     y="0"
     width="100%"
     height="100%" />
  <!-- S -->
  <use
     transform="matrix(0.144,0,0,-0.144,366.768,107.568)"
     xlink:href="#regular-53"
     style="fill:#d42b26;stroke:none"
     id="use3875"
     x="0"
     y="0"
     width="100%"
     height="100%" />
  <!-- O -->
  <use
     transform="matrix(0.144,0,0,-0.144,460.368,107.568)"
     xlink:href="#regular-4f"
     style="fill:#d42b26;stroke:none"
     id="use3877"
     x="0"
     y="0"
     width="100%"
     height="100%" />
  <!-- M -->
  <use
     transform="matrix(0.144,0,0,-0.144,566.496,107.568)"
     xlink:href="#regular-4d"
     style="fill:#d42b26;stroke:none"
     id="use3879"
     x="0"
     y="0"
     width="100%"
     height="100%" />
  <!-- G -->
  <use
     transform="matrix(0.144,0,0,-0.144,688.752,107.568)"
     xlink:href="#regular-47"
     style="fill:#d42b26;stroke:none"
     id="use3881"
     x="0"
     y="0"
     width="100%"
     height="100%" />
  <!-- O -->
  <use
     transform="matrix(0.144,0,0,-0.144,11.664,107.568)"
     xlink:href="#inline-4f"
     style="fill:#ef7575;stroke:none"
     id="use3883"
     x="0"
     y="0"
     width="100%"
     height="100%" />
  <!-- S -->
  <use
     transform="matrix(0.144,0,0,-0.144,117.792,107.568)"
     xlink:href="#inline-53"
     style="fill:#ef7575;stroke:none"
     id="use3885"
     x="0"
     y="0"
     width="100%"
     height="100%" />
  <!-- G -->
  <use
     transform="matrix(0.144,0,0,-0.144,211.392,107.568)"
     xlink:href="#inline-47"
     style="fill:#ef7575;stroke:none"
     id="use3887"
     x="0"
     y="0"
     width="100%"
     height="100%" />
  <!-- I -->
  <use
     transform="matrix(0.144,0,0,-0.144,313.344,107.568)"
     xlink:href="#inline-e114"
     style="fill:#ef7575;stroke:none"
     id="use3889"
     x="0"
     y="0"
     width="100%"
     height="100%" />
  <!-- S -->
  <use
     transform="matrix(0.144,0,0,-0.144,366.768,107.568)"
     xlink:href="#inline-53"
     style="fill:#ef7575;stroke:none"
     id="use3891"
     x="0"
     y="0"
     width="100%"
     height="100%" />
  <!-- O -->
  <use
     transform="matrix(0.144,0,0,-0.144,460.368,107.568)"
     xlink:href="#inline-4f"
     style="fill:#ef7575;stroke:none"
     id="use3893"
     x="0"
     y="0"
     width="100%"
     height="100%" />
  <!-- M -->
  <use
     transform="matrix(0.144,0,0,-0.144,566.496,107.568)"
     xlink:href="#inline-4d"
     style="fill:#ef7575;stroke:none"
     id="use3895"
     x="0"
     y="0"
     width="100%"
     height="100%" />
  <!-- G -->
  <use
     transform="matrix(0.144,0,0,-0.144,688.752,107.568)"
     xlink:href="#inline-47"
     style="fill:#ef7575;stroke:none"
     id="use3897"
     x="0"
     y="0"
     width="100%"
     height="100%" />
</svg>
